<?xml version="1.0" encoding="UTF-8"?>
<svg id="Layer_2" data-name="Layer 2" xmlns="http://www.w3.org/2000/svg" viewBox="0 0 1000 449.42">
  <defs>
    <style>
      .cls-1 {
        fill: #fff;
      }

      .cls-2 {
        fill: #e31e24;
      }
    </style>
  </defs>
  <g id="Layer_1-2" data-name="Layer 1">
    <g>
      <g>
        <path class="cls-1" d="m514.39,338.65c17.53,0,31.65-4.05,42.35-12.17,10.7-8.11,17.96-17.77,21.78-28.97l12.86-39.13c3.78-11.37,2.12-21.07-5-29.1-7.12-8.03-17.79-12.04-32.03-12.04H195.12l-15.12,43.65h74.87l-47.39,136.97h60.64l40.66-117.51-21.42-19.4h28.13l.02-.06h69.73l-45.32,136.97h60.64l19.5-59.2h29.39l66.47,110.77h69.61l-72.35-110.77h1.24Zm-80.43-41.64l5.85-17.78-20.47-18.28,106.63-.06c2.68,0,3.61,1.09,2.79,3.26l-9.75,29.6c-.61,2.17-2.26,3.26-4.94,3.26h-80.12Z"/>
        <path class="cls-1" d="m234.8,229.15c-6.98-7.94,7.11-11.92-7.12-11.92H95.01c-14.23,0-26.62,3.98-37.17,11.92-10.55,7.95-17.79,17.69-21.71,29.22l-9.54,28.1c-4.13,11.54-2.66,21.28,4.43,29.23,7.08,7.94,17.74,11.92,31.97,11.92h87.86c2.68,0,3.6,1.09,2.75,3.26l-6.95,20.07c-.65,2.17-2.31,3.26-4.99,3.26h-73.94c-2.68,0-3.7-1.09-3.06-3.26l3.74-10.28H7.78l-5.5,16.06c-4.13,11.54-2.66,21.28,4.43,29.22,7.08,7.95,17.74,11.92,31.97,11.92h109.51c14.23,0,26.31-3.97,36.24-11.92,9.93-7.94,16.96-17.69,21.09-29.22l9.54-28.1c4.13-11.54,2.65-21.28-4.43-29.22-7.09-7.94-17.74-11.92-31.97-11.92h-87.86c-2.68,0-3.7-1.08-3.06-3.26l2.18-6.29-18.76-16.98h28.29c.19-.01.34-.06.54-.06h138.52l.86-2.51c3.93-11.54,2.4-21.28-4.58-29.22Z"/>
        <path class="cls-1" d="m622.95,217.23h60.63l-62.51,180.62h-60.63l62.51-180.62Z"/>
        <path class="cls-1" d="m639.48,397.85l62.51-180.62h60.63l-16.53,47.92,71.29-47.92h72.08l-98.26,64.97,41.31,115.65h-69.3l-26.04-80.28-12.18,8.03-24.88,72.25h-60.63Z"/>
        <path class="cls-1" d="m1000,217.23h-164.73c-12.43,0-23.42,7.31-27.14,18.05l-44.69,129.11c-5.74,16.59,7.94,33.46,27.14,33.46h146.9l15.12-43.65h-124.98l5.1-14.74-15.03-13.61h38.91,0s91.89,0,91.89,0l12.66-36.63h-111.06l3.69-10.67-19.45-17.61h25.54l.02-.06h124.98l15.12-43.65Z"/>
      </g>
      <g>
        <path class="cls-2" d="m491.26,180.62L472.72,0h64.66l7.68,112.64,75.23-90.06h47.95l14.04,87.55L767.23,0h64.66l-143.87,180.62h-58.16l-9.14-89.56-71.3,89.56h-58.16Z"/>
        <path class="cls-2" d="m472.27,23.08c-1.28-7.19-5.33-12.83-12.14-16.93-6.82-4.1-15.59-6.15-26.31-6.15h-145.09l-62.51,180.62h165.51c10.52,0,20.04-2.67,28.58-8.03,8.53-5.35,15.7-12,21.51-19.94,5.8-7.94,10.01-16.47,12.61-25.59,2.6-9.11,3.22-17.52,1.85-25.21-1.61-9.03-5.69-15.72-12.23-20.07,3.92-2.34,7.78-5.85,11.58-10.54,3.81-4.68,7.06-9.86,9.76-15.55,2.7-5.69,4.72-11.42,6.07-17.18,1.34-5.77,1.62-10.91.81-15.43Zm-78.27,97.33l-1.45,4.01c-1.06,3.35-3.52,6.27-7.41,8.78-3.89,2.51-7.99,3.76-12.32,3.76h-70.84l5.67-16.26-14.4-13.04h18.95l.02-.06h70.84c6.81,0,10.64,2.43,11.5,7.28.27,1.5.08,3.35-.56,5.52Zm11.77-64.22l-1.23,3.51c-1.23,3.51-3.79,6.52-7.67,9.03-3.88,2.51-7.99,3.76-12.32,3.76h-60.32l4.78-13.94-16.61-15.04h21.76l.04-.12h60.33c6.81,0,10.69,2.68,11.64,8.03.33,1.84.19,3.43-.39,4.77Z"/>
      </g>
    </g>
  </g>
</svg>