<?xml version="1.0" encoding="UTF-8"?>
<svg id="Layer_1" data-name="Layer 1" xmlns="http://www.w3.org/2000/svg" version="1.1" viewBox="0 0 180 180">
  <defs>
    <style>
      .cls-1 {
        fill: #fff;
        stroke-width: 0px;
      }
    </style>
  </defs>
  <path class="cls-1" d="M78.8,116.8l-5.5-53.7h19.2l2.3,33.5,22.4-26.8h14.3l4.2,26,25.2-32.7h19.2l-42.8,53.7h-17.3l-2.7-26.6-21.2,26.6h-17.3Z"/>
  <path class="cls-1" d="M73.1,70c-.4-2.1-1.6-3.8-3.6-5-2-1.2-4.6-1.8-7.8-1.8H18.6L0,116.8h49.2c3.1,0,6-.8,8.5-2.4,2.5-1.6,4.7-3.6,6.4-5.9,1.7-2.4,3-4.9,3.7-7.6.8-2.7,1-5.2.6-7.5-.5-2.7-1.7-4.7-3.6-6,1.2-.7,2.3-1.7,3.4-3.1,1.1-1.4,2.1-2.9,2.9-4.6.8-1.7,1.4-3.4,1.8-5.1.4-1.7.5-3.2.2-4.6ZM49.9,98.9l-.4,1.2c-.3,1-1,1.9-2.2,2.6-1.2.7-2.4,1.1-3.7,1.1h-21.1l1.7-4.8-4.3-3.9h5.6s21.1,0,21.1,0c2,0,3.2.7,3.4,2.2,0,.4,0,1-.2,1.6ZM53.4,79.9l-.4,1c-.4,1-1.1,1.9-2.3,2.7-1.2.7-2.4,1.1-3.7,1.1h-17.9l1.4-4.1-4.9-4.5h6.5s17.9,0,17.9,0c2,0,3.2.8,3.5,2.4,0,.5,0,1-.1,1.4Z"/>
</svg>